<svg overflow="visible" xmlns="http://www.w3.org/2000/svg" width="100%" height="100%" viewBox="0 0 24 24" fill="none">   <path stroke-linejoin="miter" fill="var(--token-d0dd5984-0b88-49c3-bfa4-d18f15b02eed, rgb(64, 86, 109))" fill-rule="evenodd" clip-rule="evenodd" d="M12 2C10.6868 2 9.38642 2.25866 8.17317 2.7612C6.95991 3.26375 5.85752 4.00035 4.92893 4.92893C4.00035 5.85752 3.26375 6.95991 2.7612 8.17317C2.25866 9.38642 2 10.6868 2 12V17.25C2 17.913 2.26339 18.5489 2.73223 19.0178C3.20107 19.4866 3.83696 19.75 4.5 19.75H6C6.66304 19.75 7.29893 19.4866 7.76777 19.0178C8.23661 18.5489 8.5 17.913 8.5 17.25V13.5C8.5 12.837 8.23661 12.2011 7.76777 11.7322C7.29893 11.2634 6.66304 11 6 11H4.06275C4.15182 10.293 4.33513 9.59962 4.60896 8.93853C5.011 7.96793 5.60028 7.08601 6.34315 6.34315C7.08601 5.60028 7.96793 5.011 8.93853 4.60896C9.90914 4.20693 10.9494 4 12 4C13.0506 4 14.0909 4.20693 15.0615 4.60896C16.0321 5.011 16.914 5.60028 17.6569 6.34315C18.3997 7.08601 18.989 7.96793 19.391 8.93853C19.6649 9.59962 19.8482 10.293 19.9373 11H18C17.337 11 16.7011 11.2634 16.2322 11.7322C15.7634 12.2011 15.5 12.837 15.5 13.5V17.25C15.5 17.913 15.7634 18.5489 16.2322 19.0178C16.7011 19.4866 17.337 19.75 18 19.75H19.9843C19.9291 20.1882 19.7299 20.5986 19.4142 20.9142C19.0391 21.2893 18.5304 21.5 18 21.5H12.75C12.1977 21.5 11.75 21.9477 11.75 22.5C11.75 23.0523 12.1977 23.5 12.75 23.5H18C19.0609 23.5 20.0783 23.0786 20.8284 22.3284C21.5786 21.5783 22 20.5609 22 19.5V12C22 10.6868 21.7413 9.38642 21.2388 8.17317C20.7362 6.95991 19.9997 5.85752 19.0711 4.92893C18.1425 4.00035 17.0401 3.26375 15.8268 2.7612C14.6136 2.25866 13.3132 2 12 2ZM4 17.25V13H6C6.13261 13 6.25978 13.0527 6.35355 13.1464C6.44732 13.2402 6.5 13.3674 6.5 13.5V17.25C6.5 17.3826 6.44732 17.5098 6.35355 17.6036C6.25978 17.6973 6.13261 17.75 6 17.75H4.5C4.36739 17.75 4.24022 17.6973 4.14645 17.6036C4.05268 17.5098 4 17.3826 4 17.25ZM18 13H20V17.75H18C17.8674 17.75 17.7402 17.6973 17.6464 17.6036C17.5527 17.5098 17.5 17.3826 17.5 17.25V13.5C17.5 13.3674 17.5527 13.2402 17.6464 13.1464C17.7402 13.0527 17.8674 13 18 13Z"></path> </svg>